# AST/ASF file generated using VICON BodyLanguage
# -----------------------------------------------
:version 1.10
:name VICON
:units
  mass 1.0
  length 0.45
  angle deg
:documentation
   .ast/.asf automatically generated from VICON data using
   VICON BodyBuilder and BodyLanguage model FoxedUp or BRILLIANT.MOD
:root
   order TX TY TZ RX RY RZ
   axis XYZ
   position 0 0 0  
   orientation 0 0 0 
:bonedata
  begin
     id 1 
     name lhipjoint
     direction 0.690799 -0.707083 0.151096 
     length 2.54797 
     axis 0 0 0  XYZ
  end
  begin
     id 2 
     name lfemur
     direction 0.34202 -0.939693 0  
     length 7.21646  
     axis 0 0 20  XYZ
    dof rx ry rz
    limits (-160.0 20.0)
           (-70.0 70.0)
           (-60.0 70.0)
  end
  begin
     id 3 
     name ltibia
     direction 0.34202 -0.939693 0   
     length 8.16759   
     axis 0 0 20   XYZ
    dof rx
    limits (-10.0 170.0)
  end
  begin
     id 4 
     name lfoot
     direction 0.0487203 -0.133858 0.989802   
     length 1.93375   
     axis -90 7.62852e-016 20   XYZ
    dof rx rz
    limits (-45.0 90.0)
           (-70.0 20.0)
  end
  begin
     id 5 
     name ltoes
     direction 1.53453e-011 -4.21783e-011 1   
     length 0.979747   
     axis -90 7.62852e-016 20   XYZ
    dof rx
    limits (-90.0 20.0)
  end
  begin
     id 6 
     name rhipjoint
     direction -0.694693 -0.703425 0.150315   
     length 2.56122  
     axis 0 0 0  XYZ 
  end
  begin
     id 7 
     name rfemur
     direction -0.34202 -0.939693 0   
     length 7.36786   
     axis 0 0 -20   XYZ
    dof rx ry rz
    limits (-160.0 20.0)
           (-70.0 70.0)
           (-70.0 60.0)
  end
  begin
     id 8 
     name rtibia
     direction -0.34202 -0.939693 0   
     length 8.07288   
     axis 0 0 -20   XYZ
    dof rx
    limits (-10.0 170.0)
 end
 begin
     id 9 
     name rfoot
     direction -0.0428397 -0.117701 0.992125   
     length 1.88295  
     axis -90 -7.62852e-016 -20   XYZ
    dof rx rz
    limits (-45.0 90.0)
           (-20.0 70.0)
  end
  begin
     id 10 
     name rtoes
     direction -1.53456e-011 -4.2187e-011 1   
     length 0.955578   
     axis -90 -7.62852e-016 -20   XYZ
    dof rx
    limits (-90.0 20.0)
  end
  begin
     id 11 
     name lowerback
     direction 0.0288145 0.999398 -0.0193241   
     length 1.92149   
     axis 0 0 0   XYZ
    dof rx ry rz
    limits (-20.0 45.0)
           (-30.0 30.0)
           (-30.0 30.0)
  end
  begin
     id 12 
     name upperback
     direction 0.0233784 0.998099 0.0570278   
     length 1.90435   
     axis 0 0 0   XYZ
    dof rx ry rz
    limits (-20.0 45.0)
           (-30.0 30.0)
           (-30.0 30.0)
  end
  begin
     id 13 
     name thorax
     direction 0.0096694 0.997833 0.0650817   
     length 1.9111   
     axis 0 0 0   XYZ
    dof rx ry rz
    limits (-20.0 45.0)
           (-30.0 30.0)
           (-30.0 30.0)
  end
  begin
     id 14 
     name lowerneck
     direction 0.00516803 0.999916 0.0118722   
     length 1.74664   
     axis 0 0 0   XYZ
    dof rx ry rz
    limits (-20.0 45.0)
           (-30.0 30.0)
           (-30.0 30.0)
  end
  begin
     id 15 
     name upperneck
     direction -0.0510851 0.996117 -0.071696   
     length 1.68498   
     axis 0 0 0   XYZ
    dof rx ry rz
    limits (-20.0 45.0)
           (-30.0 30.0)
           (-30.0 30.0)
  end
  begin
     id 16
     name head
     direction -0.019188 0.999436 -0.0275702  
     length 1.83483  
     axis 0 0 0   XYZ
    dof rx ry rz
    limits (-20.0 45.0)
           (-30.0 30.0)
           (-30.0 30.0)
  end
  begin
     id 17 
     name lclavicle
     direction 0.967006 0.248456 -0.0562957  
     length 3.39395  
     axis 0 0 0   XYZ
    dof ry rz
    limits (-20.0 10.0)
           (0.0 20.0)
  end
  begin
     id 18 
     name lhumerus
     direction 1 -4.48962e-011 -5.62711e-019   
     length 5.24318   
     axis 180 -30 -90   XYZ
    dof rx ry rz
    limits (-60.0 90.0)
           (-90.0 90.0)
           (-90.0 90.0)
  end
  begin
     id 19
     name lradius
     direction 1 -4.48966e-011 7.90625e-027   
     length 2.98999   
     axis 180 -30 -90   XYZ
    dof rx
    limits (-10.0 170.0)
  end
  begin
     id 20
     name lwrist
     direction 1 -4.48959e-011 1.61068e-026   
     length 1.49499   
     axis -9.31229e-015 90 90   XYZ
    dof ry
    limits (-180.0 0.0)
 end
  begin
     id 21 
     name lhand
     direction 1 -4.49017e-011 3.22136e-026   
     length 0.726745   
     axis -2.0555e-014 90 90   XYZ
    dof rx rz
    limits (-90.0 90.0)
           (-45.0 45.0)
  end
  begin
     id 22 
     name lfingers
     direction 1 -4.4898e-011 6.44272e-026   
     length 0.58592   
     axis -4.11101e-014 90 90   XYZ
    dof rx
    limits (0.0 90.0)
  end
  begin
     id 23
     name lthumb
     direction 0.707107 -6.34922e-011 0.707107   
     length 0.841268   
     axis -90 45 2.85299e-015   XYZ
    dof rx rz
    limits (-45.0 45.0)
           (-45.0 45.0)
  end
  begin
     id 24 
     name rclavicle
     direction -0.972232 0.230238 0.0419005   
     length 3.40416  
     axis 0 0 0   XYZ 
    dof ry rz
    limits (-10.0 20.0)
           (-20.0 0.0)
  end
  begin
     id 25 
     name rhumerus
     direction -1 -4.48976e-011 2.48487e-027  
     length 5.37045   
     axis 180 30 90   XYZ
    dof rx ry rz
    limits (-90.0 60.0)
           (-90.0 90.0)
           (-90.0 90.0)
  end
  begin
     id 26 
     name rradius
     direction -1 -4.48942e-011 7.87951e-027   
     length 2.92792   
     axis 180 30 90   XYZ
    dof rx
    limits (-10.0 170.0)
  end
  begin
     id 27 
     name rwrist
     direction -1 -4.48969e-011 1.61068e-026   
     length 1.46396   
     axis -9.31229e-015 -90 -90   XYZ
    dof ry
    limits (-180.0 0.0)
  end
  begin
     id 28
     name rhand
     direction -1 -4.49043e-011 3.22136e-026   
     length 0.784497   
     axis -2.0555e-014 -90 -90   XYZ
    dof rx rz
    limits (-90.0 90.0)
           (-45.0 45.0)
  end
  begin
     id 29
     name rfingers
     direction -1 -4.48823e-011 6.44272e-026   
     length 0.632482   
     axis -4.11101e-014 -90 -90   XYZ
    dof rx
    limits (0.0 90.0)
  end
  begin
     id 30
     name rthumb
     direction -0.707107 -6.34923e-011 0.707107   
     length 0.908121   
     axis -90 -45 -2.85299e-015   XYZ
    dof rx rz
    limits (-45.0 45.0)
           (-45.0 45.0)
  end
:hierarchy
  begin
    root lhipjoint rhipjoint lowerback
    lhipjoint lfemur
    lfemur ltibia
    ltibia lfoot
    lfoot ltoes
    rhipjoint rfemur
    rfemur rtibia
    rtibia rfoot
    rfoot rtoes
    lowerback upperback
    upperback thorax
    thorax lowerneck lclavicle rclavicle
    lowerneck upperneck
    upperneck head
    lclavicle lhumerus
    lhumerus lradius
    lradius lwrist
    lwrist lhand lthumb
    lhand lfingers
    rclavicle rhumerus
    rhumerus rradius
    rradius rwrist
    rwrist rhand rthumb
    rhand rfingers
  end

#!OML:ASF E:\Style6\Style6.ASF
:FULLY-SPECIFIED
:DEGREES
1589
root 0.584451 17.0852 -1.57868 31.6865 1.64856 4.60081
lowerback 16.0675 -1.68804 3.26808
upperback 9.79043 -1.72781 2.57368
thorax 1.40267 -0.784566 1.11136
lowerneck 7.50867 13.3073 -1.79156
upperneck 8.10707 18.4015 -16.6516
head 2.63922 8.95405 -4.57518
rclavicle 6.36111e-015 4.65156e-014
rhumerus 14.8321 8.09768 -81.0117
rradius 32.9402
rwrist 28.0092
rhand -4.69866 7.92726
rfingers 7.12502
rthumb 21.0829 -20.9466
lclavicle 6.36111e-015 4.65156e-014
lhumerus 74.2947 -21.4225 50.9007
lradius 22.05
lwrist -14.9241
lhand 3.6986 19.8471
lfingers 7.12502
lthumb 29.1279 47.5888
rfemur -64.6287 -11.6496 19.7408
rtibia 44.9516
rfoot -6.087 -3.93492
rtoes -13.5451
lfemur -60.873 5.28984 -28.8417
ltibia 41.292
lfoot -7.55176 -6.15904
ltoes -15.9142
1590
root 0.583576 17.0843 -1.58107 31.7129 1.67239 4.5718
lowerback 16.0715 -1.68145 3.3816
upperback 9.76286 -1.7041 2.53226
thorax 1.36711 -0.767172 1.00109
lowerneck 7.47924 13.2798 -1.73611
upperneck 7.96938 18.3528 -16.6398
head 2.60152 8.94013 -4.58248
rclavicle 3.49861e-014 -1.07344e-014
rhumerus 14.7386 8.06838 -81.0046
rradius 32.8893
rwrist 28.0202
rhand -4.77795 7.94456
rfingers 7.12502
rthumb 21.0067 -20.9378
lclavicle 3.49861e-014 -1.07344e-014
lhumerus 74.5258 -21.4924 50.5843
lradius 22.1401
lwrist -14.8873
lhand 3.88374 19.9751
lfingers 7.12502
lthumb 29.3047 47.686
rfemur -64.6492 -11.6456 19.786
rtibia 44.9432
rfoot -6.07546 -3.92345
rtoes -12.8774
lfemur -60.94 5.30547 -28.8255
ltibia 41.329
lfoot -7.5635 -6.19288
ltoes -15.6967
1591
root 0.582806 17.0838 -1.58188 31.7086 1.64776 4.61413
lowerback 16.086 -1.66176 3.41432
upperback 9.74273 -1.67374 2.45506
thorax 1.33468 -0.748794 0.897767
lowerneck 7.46416 13.2511 -1.65833
upperneck 7.82374 18.3007 -16.6167
head 2.5597 8.92619 -4.59098
rclavicle 1.51076e-014 -3.97569e-016
rhumerus 14.65 7.91782 -81.0655
rradius 32.7848
rwrist 28.1756
rhand -4.79066 8.11693
rfingers 7.12502
rthumb 20.9945 -20.7667
lclavicle 1.51076e-014 -3.97569e-016
lhumerus 74.7532 -21.6037 50.2523
lradius 22.2655
lwrist -14.8577
lhand 3.99216 20.1624
lfingers 7.12502
lthumb 29.4082 47.8552
rfemur -64.6502 -11.6567 19.7373
rtibia 44.9526
rfoot -6.05821 -3.89831
rtoes -12.8586
lfemur -60.9353 5.31291 -28.8838
ltibia 41.3442
lfoot -7.56358 -6.20333
ltoes -15.422
1592
root 0.581546 17.0855 -1.58342 31.649 1.69243 4.57859
lowerback 16.152 -1.67525 3.51225
upperback 9.75075 -1.67544 2.41603
thorax 1.3057 -0.744483 0.803785
lowerneck 7.33021 13.2568 -1.6267
upperneck 7.74301 18.3081 -16.5548
head 2.55447 8.93056 -4.56844
rclavicle 1.98785e-014 -2.8625e-014
rhumerus 14.5956 7.87702 -81.1046
rradius 32.7352
rwrist 28.2988
rhand -4.67048 8.20099
rfingers 7.12502
rthumb 21.11 -20.6698
lclavicle 1.98785e-014 -2.8625e-014
lhumerus 74.9554 -21.6291 49.8601
lradius 22.4069
lwrist -14.7203
lhand 4.12304 20.2572
lfingers 7.12502
lthumb 29.5332 47.928
rfemur -64.5862 -11.664 19.7815
rtibia 44.9535
rfoot -6.07177 -3.91712
rtoes -12.963
lfemur -60.8855 5.31702 -28.8253
ltibia 41.3556
lfoot -7.5538 -6.21123
ltoes -15.3615
1593
root 0.580556 17.0858 -1.58527 31.6544 1.76715 4.49024
lowerback 16.1605 -1.71722 3.6301
upperback 9.75491 -1.71398 2.41529
thorax 1.30302 -0.75853 0.742875
lowerneck 7.1601 13.2752 -1.62802
upperneck 7.67222 18.3382 -16.5422
head 2.5617 8.94264 -4.55189
rclavicle -3.33958e-014 -1.07344e-014
rhumerus 14.6359 7.99235 -81.0894
rradius 32.6607
rwrist 28.2986
rhand -4.61649 8.15225
rfingers 7.12502
rthumb 21.1619 -20.7128
lclavicle -3.33958e-014 -1.07344e-014
lhumerus 75.184 -21.5465 49.2642
lradius 22.5338
lwrist -14.3652
lhand 4.18711 20.144
lfingers 7.12502
lthumb 29.5943 47.804
rfemur -64.5964 -11.672 19.9142
rtibia 44.9594
rfoot -6.11141 -3.92734
rtoes -13.4617
lfemur -60.9185 5.30656 -28.7007
ltibia 41.3695
lfoot -7.55476 -6.19734
ltoes -15.5538
1594
root 0.578816 17.0839 -1.58752 31.6285 1.7591 4.5051
lowerback 16.2482 -1.73154 3.59604
upperback 9.76467 -1.73215 2.38185
thorax 1.26722 -0.768187 0.731798
lowerneck 7.03613 13.278 -1.5821
upperneck 7.55851 18.3449 -16.5879
head 2.55572 8.94923 -4.56434
rclavicle 3.49861e-014 -3.93594e-014
rhumerus 14.6752 8.15894 -81.0251
rradius 32.5907
rwrist 28.2127
rhand -4.58329 8.10346
rfingers 7.12502
rthumb 21.1938 -20.758
lclavicle 3.49861e-014 -3.93594e-014
lhumerus 75.4704 -21.495 48.6721
lradius 22.6265
lwrist -13.9857
lhand 4.26916 20.1797
lfingers 7.12502
lthumb 29.6726 47.8257
rfemur -64.5815 -11.6618 19.8834
rtibia 44.9757
rfoot -6.15777 -3.93886
rtoes -13.44
lfemur -60.9064 5.32302 -28.722
ltibia 41.3762
lfoot -7.54782 -6.21724
ltoes -15.3141
1595
root 0.577715 17.082 -1.58987 31.588 1.70548 4.5815
lowerback 16.3608 -1.72462 3.50318
upperback 9.76761 -1.72921 2.33226
thorax 1.21211 -0.769595 0.734303
lowerneck 6.86146 13.2719 -1.47099
upperneck 7.54406 18.3683 -16.6878
head 2.59959 8.95584 -4.59322
rclavicle 2.38542e-015 2.82274e-014
rhumerus 14.6562 8.50743 -80.8303
rradius 32.614
rwrist 27.8431
rhand -4.36724 7.94984
rfingers 7.12502
rthumb 21.4013 -20.8882
lclavicle 2.38542e-015 2.82274e-014
lhumerus 75.738 -21.4909 48.2292
lradius 22.6975
lwrist -13.707
lhand 4.28046 20.3543
lfingers 7.12502
lthumb 29.6834 47.9985
rfemur -64.5717 -11.6682 19.7825
rtibia 45.0004
rfoot -6.16857 -3.92693
rtoes -12.867
lfemur -60.8733 5.35141 -28.8381
ltibia 41.3917
lfoot -7.56603 -6.22038
ltoes -15.657
1596
root 0.576224 17.0821 -1.59323 31.5755 1.67728 4.63794
lowerback 16.4724 -1.72549 3.42616
upperback 9.74011 -1.73314 2.30516
thorax 1.12514 -0.774871 0.752918
lowerneck 6.62192 13.2752 -1.42787
upperneck 7.5929 18.4067 -16.691
head 2.66006 8.96118 -4.57732
rclavicle -1.82882e-014 -3.57812e-015
rhumerus 14.6329 8.78588 -80.6545
rradius 32.5678
rwrist 27.6768
rhand -4.14934 7.90747
rfingers 7.12502
rthumb 21.6105 -20.9066
lclavicle -1.82882e-014 -3.57812e-015
lhumerus 75.8637 -21.4593 48.2298
lradius 22.6692
lwrist -13.8455
lhand 4.40315 20.4441
lfingers 7.12502
lthumb 29.8005 48.0673
rfemur -64.5996 -11.677 19.7261
rtibia 45.0286
rfoot -6.14938 -3.94677
rtoes -13.0272
lfemur -60.8767 5.3457 -28.9023
ltibia 41.4085
lfoot -7.57963 -6.19793
ltoes -16.1642
1597
root 0.574846 17.0805 -1.59669 31.6154 1.74023 4.58272
lowerback 16.5595 -1.7355 3.47278
upperback 9.65957 -1.73141 2.34118
thorax 0.993619 -0.774916 0.767634
lowerneck 6.55881 13.2523 -1.44906
upperneck 7.49656 18.3683 -16.6902
head 2.63593 8.94589 -4.57359
rclavicle 3.97569e-015 1.27222e-014
rhumerus 14.5554 8.87857 -80.5476
rradius 32.463
rwrist 27.7931
rhand -4.10984 7.95766
rfingers 7.12502
rthumb 21.6485 -20.8521
lclavicle 3.97569e-015 1.27222e-014
lhumerus 75.8981 -21.4212 48.4013
lradius 22.6292
lwrist -14.0955
lhand 4.62378 20.3515
lfingers 7.12502
lthumb 30.0111 47.9368
rfemur -64.6632 -11.6789 19.8165
rtibia 45.0766
rfoot -6.17121 -3.96314
rtoes -13.068
lfemur -60.9457 5.32028 -28.8118
ltibia 41.4109
lfoot -7.55145 -6.22253
ltoes -16.0065
1598
root 0.573508 17.0782 -1.59964 31.6534 1.80835 4.53152
lowerback 16.6799 -1.73853 3.53588
upperback 9.55454 -1.71538 2.38131
thorax 0.818478 -0.767981 0.776393
lowerneck 6.62757 13.1976 -1.43621
upperneck 7.31423 18.2701 -16.7486
head 2.56756 8.91387 -4.60714
rclavicle 3.18055e-015 -3.97569e-015
rhumerus 14.3995 8.93179 -80.4427
rradius 32.3912
rwrist 27.8638
rhand -4.24058 7.91612
rfingers 7.12502
rthumb 21.5229 -20.908
lclavicle 3.18055e-015 -3.97569e-015
lhumerus 75.9185 -21.3912 48.6645
lradius 22.5683
lwrist -14.4228
lhand 4.73589 20.0033
lfingers 7.12502
lthumb 30.118 47.5691
rfemur -64.741 -11.6979 19.915
rtibia 45.1503
rfoot -6.16698 -3.94811
rtoes -13.4521
lfemur -61.0049 5.30108 -28.7312
ltibia 41.3956
lfoot -7.46454 -6.29379
ltoes -15.0435
1599
root 0.576516 17.0759 -1.60138 31.7115 1.6997 4.8031
lowerback 16.6859 -1.70745 3.30073
upperback 9.51893 -1.70581 2.31972
thorax 0.77982 -0.770967 0.842618
lowerneck 6.6751 13.1188 -1.39291
upperneck 7.10267 18.1443 -16.8639
head 2.4989 8.87012 -4.66132
rclavicle -2.46493e-014 -9.54166e-015
rhumerus 14.3069 8.93303 -80.2854
rradius 32.402
rwrist 27.8637
rhand -4.26743 7.80527
rfingers 7.12502
rthumb 21.4971 -21.0218
lclavicle -2.46493e-014 -9.54166e-015
lhumerus 76.0691 -21.3488 48.9665
lradius 22.4921
lwrist -14.7277
lhand 4.88701 19.8573
lfingers 7.12502
lthumb 30.2622 47.3967
rfemur -64.8901 -11.8548 19.6698
rtibia 45.2292
rfoot -6.14435 -3.83087
rtoes -13.5079
lfemur -61.0277 5.25896 -29.0893
ltibia 41.3868
lfoot -7.41076 -6.3563
ltoes -14.4519
1600
root 0.57863 17.0717 -1.60341 31.7701 1.5783 5.08947
lowerback 16.6686 -1.68656 3.03312
upperback 9.50439 -1.71594 2.2436
thorax 0.77616 -0.784024 0.914115
lowerneck 6.56827 13.0842 -1.3591
upperneck 7.01497 18.1036 -16.919
head 2.49378 8.85222 -4.67738
rclavicle 1.59028e-015 -7.95139e-016
rhumerus 14.2583 8.89379 -80.1886
rradius 32.4131
rwrist 27.8269
rhand -4.17583 7.82023
rfingers 7.12502
rthumb 21.5851 -20.9968
lclavicle 1.59028e-015 -7.95139e-016
lhumerus 76.4013 -21.334 48.6109
lradius 22.567
lwrist -14.5112
lhand 5.08384 20.2472
lfingers 7.12502
lthumb 30.4499 47.752
rfemur -65.0465 -11.9929 19.3959
rtibia 45.3086
rfoot -6.14018 -3.73982
rtoes -13.3146
lfemur -61.0638 5.18493 -29.4399
ltibia 41.4068
lfoot -7.47543 -6.33919
ltoes -14.9297
1601
root 0.573313 17.0698 -1.60612 31.7332 1.73286 4.84771
lowerback 16.7478 -1.72326 3.33312
upperback 9.48472 -1.71756 2.26398
thorax 0.708241 -0.774607 0.769794
lowerneck 6.38045 13.0761 -1.24535
upperneck 7.06513 18.1254 -16.917
head 2.5503 8.85249 -4.67436
rclavicle -3.18055e-015 -3.45885e-014
rhumerus 14.1604 8.77418 -80.262
rradius 32.3698
rwrist 27.9118
rhand -4.25134 7.83525
rfingers 7.12502
rthumb 21.5126 -20.9901
lclavicle -3.18055e-015 -3.45885e-014
lhumerus 76.7153 -21.355 48.0082
lradius 22.686
lwrist -14.2455
lhand 5.1081 20.3963
lfingers 7.12502
lthumb 30.4731 47.8969
rfemur -65.0366 -11.9504 19.7146
rtibia 45.3769
rfoot -6.18064 -3.77234
rtoes -13.478
lfemur -61.111 5.19391 -29.1018
ltibia 41.4652
lfoot -7.4771 -6.2978
ltoes -14.9165
1602
root 0.566914 17.0653 -1.6089 31.7034 1.87213 4.59517
lowerback 16.8043 -1.73269 3.56656
upperback 9.4737 -1.69354 2.33585
thorax 0.665158 -0.75648 0.712209
lowerneck 6.2819 13.0507 -1.22191
upperneck 7.01772 18.0995 -16.9579
head 2.55521 8.83886 -4.68388
rclavicle 0 -9.93923e-015
rhumerus 14.0677 8.69239 -80.2443
rradius 32.3498
rwrist 28.0526
rhand -4.31128 7.74089
rfingers 7.12502
rthumb 21.455 -21.091
lclavicle 0 -9.93923e-015
lhumerus 76.9974 -21.3262 47.755
lradius 22.6448
lwrist -14.2307
lhand 5.0373 20.1877
lfingers 7.12502
lthumb 30.4056 47.7008
rfemur -65.0522 -11.8891 20.0398
rtibia 45.4794
rfoot -6.2264 -3.80264
rtoes -13.5157
lfemur -61.1793 5.23175 -28.7589
ltibia 41.5301
lfoot -7.43632 -6.30267
ltoes -14.496
1603
root 0.56965 17.0578 -1.61014 31.7658 1.83253 4.76631
lowerback 16.7346 -1.72381 3.38408
upperback 9.48933 -1.7107 2.35327
thorax 0.722137 -0.771551 0.833578
lowerneck 6.20179 13.0001 -1.29673
upperneck 6.84194 18.0197 -17.0684
head 2.51181 8.80724 -4.70807
rclavicle 3.97569e-015 4.29375e-014
rhumerus 14.1206 8.65425 -80.0855
rradius 32.2838
rwrist 28.1359
rhand -4.32079 7.74311
rfingers 7.12502
rthumb 21.4459 -21.0898
lclavicle 3.97569e-015 4.29375e-014
lhumerus 77.2209 -21.1817 47.8559
lradius 22.576
lwrist -14.3697
lhand 5.11116 20.06
lfingers 7.12502
lthumb 30.476 47.56
rfemur -65.2243 -12.0713 19.96
rtibia 45.6079
rfoot -6.22966 -3.66785
rtoes -13.7547
lfemur -61.2758 5.20356 -28.9987
ltibia 41.6074
lfoot -7.48185 -6.34061
ltoes -14.7169
